<?xml version="1.0" standalone="no"?>
<!DOCTYPE svg PUBLIC "-//W3C//DTD SVG 20010904//EN"
 "http://www.w3.org/TR/2001/REC-SVG-20010904/DTD/svg10.dtd">
<svg version="1.0" xmlns="http://www.w3.org/2000/svg"
 width="512.000000pt" height="512.000000pt" viewBox="0 0 512.000000 512.000000"
 preserveAspectRatio="xMidYMid meet">

<g transform="translate(0.000000,512.000000) scale(0.100000,-0.100000)"
fill="#000000" stroke="none">
<path d="M1091 4444 c-312 -84 -461 -424 -314 -719 18 -36 94 -119 264 -290
131 -132 239 -243 239 -245 0 -3 -37 -6 -83 -7 -265 -5 -478 -224 -477 -492 1
-95 13 -148 52 -231 29 -60 104 -138 897 -933 685 -685 871 -867 891 -867 19
0 202 178 863 838 461 460 859 865 883 899 61 85 86 158 92 269 5 104 -11 173
-60 267 -40 74 -139 167 -220 206 -70 33 -177 55 -238 49 -22 -2 -40 -1 -40 1
0 3 108 114 239 246 250 251 271 279 306 399 23 77 17 218 -13 298 -100 278
-419 405 -692 275 -59 -28 -115 -80 -592 -556 l-528 -525 -527 526 c-482 480
-534 528 -593 556 -114 53 -239 66 -349 36z m276 -115 c55 -20 90 -54 613
-575 430 -429 561 -554 580 -554 19 0 148 123 570 544 587 586 586 586 712
608 46 8 78 8 127 -1 261 -48 402 -320 291 -560 -29 -62 -87 -122 -865 -901
l-835 -835 -835 835 c-778 779 -836 839 -865 901 -107 229 19 493 265 556 65
16 169 9 242 -18z"/>
</g>
</svg>
